<svg width="224" height="56" viewBox="0 0 224 56" fill="none" xmlns="http://www.w3.org/2000/svg">
<rect width="56.0032" height="56" rx="8" fill="#1E40AF"/>
<path fill-rule="evenodd" clip-rule="evenodd" d="M12 8.66667C12 8.29848 12.2985 8 12.6667 8H18C18.3682 8 18.6667 8.29848 18.6667 8.66667V32.0158C18.6667 32.384 18.9651 32.6825 19.3333 32.6825H20.5781C20.8803 32.6825 21.1447 32.4792 21.2224 32.1872L26.1079 15.1357C26.185 14.8456 26.4461 14.6446 26.7455 14.6446L32.0607 14.6446L32.0638 14.6446L34.8879 14.6446C35.1878 14.6446 35.4491 14.8461 35.5259 15.1367L43.9807 47.1267C44.0927 47.5504 43.7732 47.9686 43.3359 47.9708L38.0191 47.9975C37.7184 47.999 37.4556 47.7976 37.3781 47.5064L35.6907 41.162C35.613 40.8699 35.3486 40.6667 35.0464 40.6667H26.5746C26.272 40.6667 26.0073 40.8705 25.93 41.1632L24.2549 47.5077C24.1781 47.7984 23.9168 48 23.6169 48L18.2397 48C17.8006 48 17.4788 47.5802 17.5919 47.1548L19.0946 41.5047C19.2072 41.0816 18.8882 40.6667 18.4504 40.6667H12.6667C12.6437 40.6667 12.6209 40.6655 12.5985 40.6632C12.2623 40.6291 12 40.3452 12 40V8.66667ZM28.0423 31.8457C27.9306 32.2685 28.2495 32.6825 28.6868 32.6825H32.9187C33.3566 32.6825 33.6755 32.2676 33.563 31.8445L31.4393 25.1772C31.2635 24.5162 30.3251 24.517 30.1505 25.1784L28.0423 31.8457Z" fill="#FAFAFA"/>
<path d="M65.6032 42.74C64.5366 42.74 64.0032 42.2067 64.0032 41.14V15.98C64.0032 15.5533 64.1899 15.2333 64.5632 15.02C64.9632 14.78 65.5766 14.66 66.4032 14.66H67.8032C68.6566 14.66 69.2699 14.78 69.6432 15.02C70.0166 15.2333 70.2032 15.5533 70.2032 15.98V37.5H78.8032C79.6032 37.5 80.0032 38.1667 80.0032 39.5V40.74C80.0032 42.0733 79.6032 42.74 78.8032 42.74H65.6032Z" fill="#172554"/>
<path d="M91.9432 42.74C88.3166 42.74 85.6632 41.78 83.9832 39.86C82.3299 37.9133 81.5032 35.3267 81.5032 32.1C81.5032 29.46 81.9166 27.34 82.7432 25.74C83.5699 24.14 84.7166 22.98 86.1832 22.26C87.6499 21.54 89.3299 21.18 91.2232 21.18C93.3299 21.18 95.0099 21.66 96.2632 22.62C97.5166 23.5533 98.4232 24.7933 98.9832 26.34C99.5699 27.86 99.8632 29.5133 99.8632 31.3C99.8632 31.6467 99.7299 32.02 99.4632 32.42C99.2232 32.82 98.9299 33.1667 98.5832 33.46C98.2366 33.7267 97.9166 33.86 97.6232 33.86H87.5832C87.6366 35.46 88.0899 36.5667 88.9432 37.18C89.8232 37.7667 90.9166 38.06 92.2232 38.06C93.1299 38.06 93.9299 37.94 94.6232 37.7C95.3432 37.4333 95.9432 37.18 96.4232 36.94C96.9299 36.7 97.3166 36.58 97.5832 36.58C97.8499 36.58 98.1166 36.78 98.3832 37.18C98.6499 37.58 98.8766 38.0333 99.0632 38.54C99.2499 39.02 99.3432 39.3933 99.3432 39.66C99.3432 40.06 99.0766 40.4467 98.5432 40.82C98.0366 41.1933 97.3832 41.5267 96.5832 41.82C95.7832 42.1133 94.9699 42.34 94.1432 42.5C93.3166 42.66 92.5832 42.74 91.9432 42.74ZM87.5032 29.9H94.2232C94.2232 28.5667 93.9566 27.5667 93.4232 26.9C92.8899 26.2067 92.0766 25.86 90.9832 25.86C90.5032 25.86 89.9966 25.9533 89.4632 26.14C88.9299 26.3267 88.4766 26.7133 88.1032 27.3C87.7299 27.86 87.5299 28.7267 87.5032 29.9Z" fill="#172554"/>
<path d="M111.083 42.74C107.91 42.74 105.497 41.8067 103.843 39.94C102.19 38.0733 101.363 35.4067 101.363 31.94C101.363 28.4467 102.19 25.78 103.843 23.94C105.497 22.1 107.91 21.18 111.083 21.18C114.257 21.18 116.657 22.1 118.283 23.94C119.937 25.78 120.763 28.4467 120.763 31.94C120.763 35.4067 119.937 38.0733 118.283 39.94C116.657 41.8067 114.257 42.74 111.083 42.74ZM111.083 38.06C112.337 38.06 113.243 37.54 113.803 36.5C114.39 35.46 114.683 33.94 114.683 31.94C114.683 29.94 114.39 28.4333 113.803 27.42C113.243 26.38 112.337 25.86 111.083 25.86C109.83 25.86 108.91 26.38 108.323 27.42C107.737 28.4333 107.443 29.94 107.443 31.94C107.443 33.94 107.737 35.46 108.323 36.5C108.91 37.54 109.83 38.06 111.083 38.06Z" fill="#172554"/>
<path d="M125.103 42.74C124.25 42.74 123.623 42.6333 123.223 42.42C122.85 42.18 122.663 41.8467 122.663 41.42V28.7C122.663 27.5267 122.623 26.5933 122.543 25.9C122.49 25.18 122.423 24.62 122.343 24.22C122.29 23.82 122.263 23.4733 122.263 23.18C122.263 22.8867 122.45 22.6467 122.823 22.46C123.223 22.2733 123.69 22.14 124.223 22.06C124.783 21.9533 125.303 21.8867 125.783 21.86C126.29 21.8067 126.65 21.78 126.863 21.78C127.183 21.78 127.423 21.86 127.583 22.02C127.743 22.1533 127.877 22.4067 127.983 22.78C128.117 23.1533 128.25 23.7133 128.383 24.46C128.783 23.9533 129.277 23.4733 129.863 23.02C130.477 22.54 131.157 22.1533 131.903 21.86C132.677 21.5667 133.49 21.42 134.343 21.42C135.703 21.42 136.823 21.66 137.703 22.14C138.61 22.5933 139.277 23.3 139.703 24.26C140.13 25.1933 140.343 26.4067 140.343 27.9V41.42C140.343 41.8467 140.143 42.18 139.743 42.42C139.37 42.6333 138.757 42.74 137.903 42.74H136.783C135.93 42.74 135.303 42.6333 134.903 42.42C134.53 42.18 134.343 41.8467 134.343 41.42V28.78C134.343 28.0067 134.17 27.4067 133.823 26.98C133.477 26.5267 132.877 26.3 132.023 26.3C131.597 26.3 131.157 26.4067 130.703 26.62C130.277 26.8067 129.877 27.0733 129.503 27.42C129.157 27.7667 128.877 28.1667 128.663 28.62V41.42C128.663 41.8467 128.463 42.18 128.063 42.42C127.69 42.6333 127.077 42.74 126.223 42.74H125.103Z" fill="#172554"/>
<path d="M144.283 42.74C143.457 42.74 142.843 42.66 142.443 42.5C142.043 42.34 141.843 42.1267 141.843 41.86C141.843 41.7533 141.857 41.6467 141.883 41.54C141.937 41.4067 141.977 41.2733 142.003 41.14L150.803 15.42C150.91 15.1267 151.15 14.9133 151.523 14.78C151.897 14.6467 152.417 14.58 153.083 14.58H155.163C155.857 14.58 156.377 14.6467 156.723 14.78C157.097 14.9133 157.337 15.1267 157.443 15.42L166.243 41.14C166.297 41.2733 166.323 41.4067 166.323 41.54C166.35 41.6467 166.363 41.7533 166.363 41.86C166.363 42.1267 166.203 42.34 165.883 42.5C165.563 42.66 165.057 42.74 164.363 42.74H162.603C162.017 42.74 161.523 42.6867 161.123 42.58C160.723 42.4467 160.47 42.22 160.363 41.9L154.763 24.62C154.63 24.1933 154.51 23.7667 154.403 23.34C154.323 22.9133 154.243 22.4867 154.163 22.06H154.003C153.923 22.4867 153.83 22.9133 153.723 23.34C153.643 23.7667 153.537 24.1933 153.403 24.62L147.723 41.9C147.617 42.1933 147.403 42.4067 147.083 42.54C146.763 42.6733 146.363 42.74 145.883 42.74H144.283ZM147.283 36.78V31.94H160.963V36.78H147.283Z" fill="#1E40AF"/>
<path d="M170.703 42.74C169.85 42.74 169.223 42.62 168.823 42.38C168.45 42.1667 168.263 41.8467 168.263 41.42V20.54C168.263 19.3667 168.223 18.4333 168.143 17.74C168.09 17.02 168.023 16.46 167.943 16.06C167.89 15.66 167.863 15.3133 167.863 15.02C167.863 14.7267 168.05 14.4867 168.423 14.3C168.823 14.1133 169.29 13.98 169.823 13.9C170.383 13.7933 170.903 13.7267 171.383 13.7C171.89 13.6467 172.25 13.62 172.463 13.62C172.783 13.62 173.023 13.7 173.183 13.86C173.343 13.9933 173.477 14.2467 173.583 14.62C173.717 14.9933 173.85 15.5533 173.983 16.3C174.303 15.7133 174.73 15.1933 175.263 14.74C175.823 14.2867 176.463 13.9267 177.183 13.66C177.903 13.3933 178.677 13.26 179.503 13.26C180.997 13.26 182.317 13.6733 183.463 14.5C184.61 15.3267 185.517 16.5533 186.183 18.18C186.85 19.78 187.183 21.74 187.183 24.06C187.183 26.22 186.85 28.1133 186.183 29.74C185.517 31.34 184.53 32.5933 183.223 33.5C181.943 34.38 180.383 34.82 178.543 34.82C177.877 34.82 177.277 34.7533 176.743 34.62C176.21 34.5133 175.73 34.3667 175.303 34.18C174.903 33.9667 174.557 33.7667 174.263 33.58V41.42C174.263 41.8467 174.063 42.1667 173.663 42.38C173.29 42.62 172.677 42.74 171.823 42.74H170.703ZM177.263 30.14C178.57 30.14 179.53 29.6333 180.143 28.62C180.783 27.58 181.103 26.06 181.103 24.06C181.103 22.1133 180.823 20.6333 180.263 19.62C179.73 18.6067 178.89 18.1 177.743 18.1C176.943 18.1 176.25 18.34 175.663 18.82C175.103 19.3 174.637 19.8467 174.263 20.46V29.38C174.61 29.5667 175.023 29.74 175.503 29.9C176.01 30.06 176.597 30.14 177.263 30.14Z" fill="#1E40AF"/>
<path d="M191.523 42.74C190.67 42.74 190.043 42.62 189.643 42.38C189.27 42.1667 189.083 41.8467 189.083 41.42V20.54C189.083 19.3667 189.043 18.4333 188.963 17.74C188.91 17.02 188.843 16.46 188.763 16.06C188.71 15.66 188.683 15.3133 188.683 15.02C188.683 14.7267 188.87 14.4867 189.243 14.3C189.643 14.1133 190.11 13.98 190.643 13.9C191.203 13.7933 191.723 13.7267 192.203 13.7C192.71 13.6467 193.07 13.62 193.283 13.62C193.603 13.62 193.843 13.7 194.003 13.86C194.163 13.9933 194.297 14.2467 194.403 14.62C194.537 14.9933 194.67 15.5533 194.803 16.3C195.123 15.7133 195.55 15.1933 196.083 14.74C196.643 14.2867 197.283 13.9267 198.003 13.66C198.723 13.3933 199.497 13.26 200.323 13.26C201.817 13.26 203.137 13.6733 204.283 14.5C205.43 15.3267 206.337 16.5533 207.003 18.18C207.67 19.78 208.003 21.74 208.003 24.06C208.003 26.22 207.67 28.1133 207.003 29.74C206.337 31.34 205.35 32.5933 204.043 33.5C202.763 34.38 201.203 34.82 199.363 34.82C198.697 34.82 198.097 34.7533 197.563 34.62C197.03 34.5133 196.55 34.3667 196.123 34.18C195.723 33.9667 195.377 33.7667 195.083 33.58V41.42C195.083 41.8467 194.883 42.1667 194.483 42.38C194.11 42.62 193.497 42.74 192.643 42.74H191.523ZM198.083 30.14C199.39 30.14 200.35 29.6333 200.963 28.62C201.603 27.58 201.923 26.06 201.923 24.06C201.923 22.1133 201.643 20.6333 201.083 19.62C200.55 18.6067 199.71 18.1 198.563 18.1C197.763 18.1 197.07 18.34 196.483 18.82C195.923 19.3 195.457 19.8467 195.083 20.46V29.38C195.43 29.5667 195.843 29.74 196.323 29.9C196.83 30.06 197.417 30.14 198.083 30.14Z" fill="#1E40AF"/>
<path d="M216.143 42.74C215.397 42.74 214.637 42.6733 213.863 42.54C213.09 42.4333 212.37 42.26 211.703 42.02C211.037 41.78 210.503 41.5 210.103 41.18C209.703 40.8333 209.503 40.4467 209.503 40.02C209.503 39.6733 209.623 39.26 209.863 38.78C210.103 38.3 210.383 37.8733 210.703 37.5C211.05 37.1267 211.357 36.94 211.623 36.94C211.837 36.94 212.117 37.0333 212.463 37.22C212.837 37.4067 213.29 37.5933 213.823 37.78C214.357 37.9667 214.97 38.06 215.663 38.06C216.463 38.06 217.063 37.9133 217.463 37.62C217.89 37.3267 218.103 36.9133 218.103 36.38C218.103 35.98 217.957 35.6467 217.663 35.38C217.397 35.1133 217.023 34.8733 216.543 34.66C216.063 34.42 215.503 34.1667 214.863 33.9C214.383 33.6867 213.85 33.4333 213.263 33.14C212.703 32.8467 212.17 32.4733 211.663 32.02C211.183 31.5667 210.783 30.9933 210.463 30.3C210.143 29.6067 209.983 28.7533 209.983 27.74C209.983 26.3533 210.277 25.18 210.863 24.22C211.477 23.2333 212.33 22.4867 213.423 21.98C214.517 21.4467 215.797 21.18 217.263 21.18C217.85 21.18 218.477 21.22 219.143 21.3C219.837 21.38 220.49 21.5133 221.103 21.7C221.743 21.8867 222.263 22.1267 222.663 22.42C223.063 22.7133 223.263 23.0733 223.263 23.5C223.263 23.7933 223.17 24.1933 222.983 24.7C222.797 25.2067 222.57 25.66 222.303 26.06C222.063 26.46 221.81 26.66 221.543 26.66C221.33 26.66 220.93 26.5267 220.343 26.26C219.757 25.9667 218.97 25.82 217.983 25.82C217.317 25.82 216.797 25.94 216.423 26.18C216.05 26.3933 215.863 26.7667 215.863 27.3C215.863 27.7267 215.997 28.0867 216.263 28.38C216.557 28.6467 216.957 28.8867 217.463 29.1C217.97 29.3133 218.543 29.54 219.183 29.78C219.663 29.9667 220.183 30.2067 220.743 30.5C221.303 30.7667 221.823 31.1267 222.303 31.58C222.81 32.0333 223.21 32.62 223.503 33.34C223.823 34.0333 223.983 34.8867 223.983 35.9C223.983 37.26 223.677 38.46 223.063 39.5C222.45 40.5133 221.557 41.3133 220.383 41.9C219.237 42.46 217.823 42.74 216.143 42.74Z" fill="#1E40AF"/>
</svg>
